<?xml version="1.0" encoding="utf-8"?>
<!-- Generator: Adobe Illustrator 26.0.1, SVG Export Plug-In . SVG Version: 6.00 Build 0)  -->
<svg version="1.1" id="Layer_1" xmlns="http://www.w3.org/2000/svg" xmlns:xlink="http://www.w3.org/1999/xlink" x="0px" y="0px"
	 viewBox="0 0 460.3 467.99" style="enable-background:new 0 0 460.3 467.99;" xml:space="preserve">
<g>
	<path d="M341.82,166.19c0.06,5.96-0.47,11.84-2,17.59c-0.65,2.42-0.09,3.79,2.29,5.14c10.15,5.74,19.49,12.57,26.04,22.45
		c5.45,8.23,8.22,17.26,6.47,27.25c-1.51,8.63-5.96,15.79-11.63,22.28c-5.79,6.63-12.44,12.26-19.89,16.93
		c-1.57,0.98-2.02,1.94-1.65,3.86c1.68,8.77,2.82,17.54,1.44,26.54c-1.54,10.02-5.98,18.36-12.94,25.59
		c-11.53,11.97-25.77,15.85-41.87,14.27c-3.31-0.32-6.64-0.61-9.88-1.47c-1.75-0.46-2.86,0.13-3.9,1.73
		c-6.74,10.33-14.72,19.55-24.98,26.56c-16.77,11.45-34.44,10.13-49.49-3.62c-6.31-5.77-11.52-12.45-15.9-19.77
		c-0.9-1.51-1.66-1.81-3.37-1.26c-8.43,2.67-17.06,4.44-25.9,5.04c-6.63,0.44-13.05-1.03-19.56-1.81c-3.03-0.36-4.78-1.87-7.01-3.08
		c-10.37-5.6-16.33-14.37-18.49-25.83c-2.47-13.14-0.17-25.85,3.6-38.41c1.09-3.62,1.21-3.66-2.12-5.41
		c-7.77-4.08-14.37-9.66-20.28-16.03c-13.91-14.98-14.83-34.18-2.59-50.8c6.65-9.03,14.98-16.26,24.35-22.31
		c1.64-1.06,2.13-1.94,1.56-4c-3.11-11.31-4.93-22.81-3.38-34.57c2.39-18.21,16.19-31.72,30.85-35.65
		c11.87-3.18,23.59-2.14,35.32,0.61c2.18,0.51,4.4,0.97,6.5,1.73c1.69,0.6,2.53,0.12,3.46-1.3c5.14-7.95,11.21-15.11,18.49-21.19
		c6.07-5.07,12.71-9.07,20.56-10.76c11.6-2.51,21.72,0.96,30.93,7.77c10.25,7.58,17.51,17.68,23.55,28.73
		c0.88,1.61,1.74,2.09,3.52,1.74c7.07-1.39,14.24-1.84,21.39-1.12c14.77,1.49,26.62,7.57,32.91,21.88
		C341.1,152.09,342.03,159.06,341.82,166.19z M168.33,208.39c0.05,0.38,0.16,0.64,0.09,0.84c-1.11,3.32-3.68,6.36-1.97,10.24
		c0.11,0.25-0.05,0.65-0.14,0.97c-1.04,3.44-1.52,6.98-1.66,10.54c-0.3,7.51-0.38,15.1,2.14,22.24c1.76,4.99,1.68,10.75,5.92,14.84
		c1.27,1.22,1.96,3.03,3.25,4.35c9.04,9.22,18.62,17.84,28.64,25.98c1.9,1.55,3.9,2.31,6.33,2.49c15.74,1.15,31.46,0.89,47.17-0.43
		c1.43-0.12,2.47-0.82,3.5-1.73c10.92-9.68,21.06-20.11,30.45-31.27c0.81-0.97,1.46-1.95,1.56-3.3c1.36-17.64,1.53-35.27,0.03-52.91
		c-0.07-0.86-0.3-1.61-0.83-2.3c-4.52-5.88-9.43-11.42-14.4-16.91c-0.67-0.74-1.34-1.24-2.22-0.16c-1.04,1.27-1.93,0.68-2.89-0.27
		c-3.99-3.9-8.1-7.66-12.56-11.02c-0.74-0.55-2.11-1.11-1.33-2.26c0.76-1.13,1.82,0.01,2.67,0.33c1.87,0.7,3.32,2.3,5.49,2.54
		c-3.92-3.79-7.07-8.66-12.12-10.77c-4.11-1.72-8.89-0.79-13.43-0.78c1.47,0.97,3.02,1.46,4.54,2.02c0.74,0.27,1.55,1.25,0.62,1.48
		c-1.4,0.36-2.42,1.95-4.1,1.29c-2.2-0.87-4.57-0.9-6.86-1.27c-7.82-1.25-15.57-0.64-23.27,1c-1.87,0.4-3.73,0.81-5.6,1.22
		c4.77-2.5,9.87-3.59,15.59-4.27c-1.55-0.97-2.64-0.7-3.68-0.66c-4.18,0.15-8.24,1.1-12.26,2.15c-8.18,2.15-15.89,5.38-22.31,11.05
		c-6.43,5.68-12.27,11.97-18.07,18.29c-0.71,0.77-1.35,1.65-1.02,2.67c0.62,1.88,0.08,3.55-0.46,5.31
		c-0.32,1.04-0.54,2.19-0.06,3.39C166.78,211.95,166.84,209.79,168.33,208.39z M155.35,120.23c-3.97-0.35-7.28,0.07-10.61,0.28
		c-1.85,0.12-3.61,0.56-5.39,0.98c-14.84,3.54-20.85,11.36-23.61,25.06c-2.62,12.99-0.4,25.63,3.57,38.08
		c0.66,2.08,1.35,2.15,3.13,1.22c12.95-6.77,26.66-11.51,40.8-15.05c2.01-0.5,2.77-1.47,3.2-3.2c3.47-13.91,8.23-27.34,15-40.01
		c0.88-1.65,0.37-2.44-1.26-2.9C171.85,122.33,163.44,120.35,155.35,120.23z M115.17,307.23c0.16,3.39,0.34,7.86,1.39,12.28
		c2.72,11.42,8.81,20.25,19.7,25.14c13.9,6.24,28.11,4.55,42.32,1.12c2-0.48,1.18-1.57,0.65-2.6c-6.65-12.76-11.08-26.32-14.4-40.26
		c-0.51-2.15-1.54-2.88-3.4-3.26c-5.79-1.17-11.46-2.81-17.07-4.63c-8.22-2.67-16.35-5.6-24.12-9.42c-1.18-0.58-2.17-0.81-2.56,1
		C116.29,293.03,115.27,299.52,115.17,307.23z M270.73,126.96c-0.08-0.23-0.18-0.64-0.38-0.99c-5.57-9.84-11.92-19.07-21.13-25.92
		c-13.15-9.78-27.97-10.57-41.23-2.14c-8.08,5.14-13.41,12.77-18.38,20.73c-1.34,2.16-0.8,2.91,1.34,3.66
		c14.58,5.12,28.1,12.39,41.05,20.74c1.6,1.03,2.85,1.13,4.52,0.16c10.39-5.99,21.26-10.96,32.68-14.67
		C269.96,128.29,270.68,128.11,270.73,126.96z M99.02,257.31c-1.71,1.71-0.65,2.61,0.29,3.62c4.61,4.99,10.27,8.68,15.72,12.63
		c1.63,1.18,2.25,0.81,2.99-0.99c4.84-11.79,10.9-22.95,17.82-33.65c0.85-1.32,0.88-2.26,0.06-3.6c-4.18-6.79-8.14-13.72-11.6-20.92
		c-2.99-6.22-5.74-12.52-7.85-19.1c-0.41-1.29-0.87-2.64-2.76-1.49c-6.78,4.11-13.42,8.41-18.54,14.58
		c-7.49,9.03-11.11,19.21-8.49,31.04c1.4,6.32,4.85,11.6,8.63,16.69C96.13,257.28,96.82,258.8,99.02,257.31z M370.02,237.05
		c-0.04-4.96-0.82-9.77-3.05-14.26c-6.19-12.46-16.34-21-27.83-28.24c-1.39-0.87-2.02-0.46-2.5,1.03
		c-3.86,11.81-9.16,22.98-15.38,33.72c-0.78,1.35-1.07,2.46-0.19,3.91c8.03,13.18,14.63,27.01,18.74,41.94
		c0.31,1.12,0.9,1.84,2.16,1.08c7.06-4.29,13.94-8.89,19.05-15.5c1.24-1.6,2.43-3.34,3.57-5.04
		C368.35,250.11,370.07,243.8,370.02,237.05z M234.91,374.83c1.27-0.14,3.29-0.19,5.23-0.61c14.75-3.16,23.21-13.71,30.15-25.95
		c1.07-1.89,0.25-3.28-1.85-3.95c-2.29-0.73-4.6-1.44-6.86-2.24c-10.91-3.87-21.28-8.92-31.28-14.72c-1.12-0.65-1.93-0.82-3.14-0.04
		c-10.55,6.81-21.46,12.96-33.04,17.87c-1.64,0.7-1.71,1.39-0.8,2.76c4.9,7.41,10.57,14.12,17.87,19.29
		C218.06,372.1,225.58,375.14,234.91,374.83z M300.26,340.92c6.46,0.13,12.69-0.98,18.85-2.96c9.71-3.11,13.49-10.73,15.45-19.74
		c2.3-10.63,1.17-21.19-1.07-31.7c-0.4-1.86-1.2-2.68-3.11-1.56c-1.07,0.63-2.24,1.1-3.37,1.62c-9.6,4.47-19.61,7.79-29.77,10.68
		c-1.4,0.4-2.13,1.12-2.47,2.45c-3.26,12.68-7.77,24.9-13.62,36.61c-0.84,1.68-0.35,2.1,1.27,2.48
		C288.31,340.18,294.26,340.75,300.26,340.92z M295.93,127.91c-3.52-0.13-6.97,0.58-10.47,0.73c-1.49,0.06-1.96,0.72-1.22,2.11
		c0.27,0.51,0.45,1.07,0.69,1.6c5.21,11.74,9.11,23.9,11.77,36.45c0.42,1.96,1.37,3.01,3.27,3.55c11.37,3.21,22.54,6.97,33.25,11.98
		c1.6,0.75,2.32,0.48,2.65-1.42c1.58-8.95,1.95-17.86-0.2-26.77c-3.05-12.59-10.77-21.02-22.82-25.59
		C307.41,128.49,301.68,128.09,295.93,127.91z M172.22,168.73c0.33-0.04,0.66-0.07,0.99-0.13c10.13-1.93,20.3-3.63,30.6-4.38
		c1.3-0.09,2.33-0.79,3.33-1.57c5.92-4.58,12.05-8.87,18.37-12.88c1.75-1.11,2.09-1.79,0.12-3.06
		c-11.99-7.67-24.45-14.41-37.83-19.41c-2.08-0.78-2.73-0.23-3.56,1.49c-5.92,12.25-10.01,25.12-13.27,38.29
		C170.69,168.23,170.84,168.9,172.22,168.73z M164.27,175.94c0.01-0.58-0.85-0.5-1.57-0.36c-1.39,0.27-2.75,0.65-4.12,0.99
		c-12.14,2.98-23.94,6.92-35.29,12.19c-1.78,0.83-2,1.87-1.33,3.56c4.92,12.5,11.06,24.36,18.32,35.66
		c1.11,1.73,1.76,1.86,2.97,0.12c4.49-6.41,9.34-12.55,14.44-18.49c1.02-1.19,1.63-2.5,1.75-4.04c0.54-6.9,1.66-13.71,3.05-20.49
		C163.07,182.24,163.6,179.38,164.27,175.94z M162.51,291.8c-0.03-0.19-0.06-0.35-0.1-0.51c-1.59-7.41-2.43-14.93-3.33-22.44
		c-0.16-1.36-0.59-2.54-1.51-3.61c-6.38-7.46-12.21-15.35-17.62-23.54c-1.41-2.13-1.71-2.14-2.96-0.02
		c-6.16,10.38-11.47,21.14-15.6,32.51c-0.91,2.5-0.16,3.34,1.83,4.36c7.25,3.71,14.65,7.1,22.35,9.74c4.95,1.7,9.93,3.31,15.04,4.48
		C161.56,292.97,162.5,293.31,162.51,291.8z M176.03,302.52c-1.57-0.19-2.11,0.19-1.62,1.93c3.45,12.18,7.99,23.9,13.85,35.14
		c1.19,2.29,2.37,2.71,4.65,1.82c10.78-4.18,21.12-9.25,31.09-15.1c1.85-1.09,1.67-1.73-0.05-2.82c-8.29-5.25-16.3-10.91-23.99-17
		c-0.66-0.52-1.31-1-2.18-1.11C190.53,304.41,183.22,303.91,176.03,302.52z M287.86,301.42c0.1-1.46-0.45-1.78-1.83-1.45
		c-9,2.12-18.12,3.51-27.3,4.56c-0.95,0.11-1.75,0.38-2.49,1c-5.67,4.77-11.44,9.41-17.43,13.77c-1.39,1.01-1.06,1.6,0.22,2.31
		c10.99,6.12,22.43,11.21,34.47,14.92c1.81,0.56,2.83,0.26,3.64-1.68c2.84-6.84,5.32-13.8,7.4-20.9
		C285.74,309.8,286.75,305.6,287.86,301.42z M331.7,280.19c-0.05-0.27-0.09-0.69-0.21-1.08c-3.88-12.86-9.56-24.94-16.05-36.66
		c-0.88-1.6-1.59-1.19-2.47,0.06c-3.24,4.62-6.53,9.21-9.84,13.79c-0.77,1.06-1.05,2.24-1.17,3.5c-1,10.69-2.72,21.27-5.2,31.72
		c-0.47,1.98,0.33,2.42,2.07,1.94c2.32-0.64,4.65-1.25,6.96-1.94c8.28-2.48,16.4-5.38,24.24-9.03
		C330.95,282.05,331.92,281.64,331.7,280.19z M285.49,168.65c0.72,0.07,1.13-0.35,0.78-1.65c-3.1-11.49-6.99-22.69-12.03-33.49
		c-0.92-1.98-2.02-2.23-3.91-1.67c-10.79,3.2-21.14,7.44-31.09,12.69c-2.48,1.31-2.49,1.45-0.15,3.17
		c4.82,3.54,9.82,6.88,14.42,10.7c4.94,4.1,9.85,7.91,16.72,7.59c0.24-0.01,0.49,0.11,0.73,0.15
		C275.65,166.95,280.32,167.76,285.49,168.65z M333.63,193.26c0.05-1.56-0.04-1.85-1.13-2.45c-10.16-5.57-20.89-9.72-32.04-12.82
		c-1.5-0.42-1.76,0.22-1.49,1.54c1.76,8.56,2.55,17.26,3.53,25.93c0.12,1.04,0.45,1.9,1.1,2.7c4.83,6.04,9.35,12.3,13.55,18.79
		c1.1,1.7,1.66,1.66,2.63-0.14c4.12-7.6,7.7-15.45,10.65-23.57C331.67,199.82,332.66,196.31,333.63,193.26z M196.66,170.87
		c-1.01-0.72-1.69-0.47-2.33-0.42c-6.98,0.51-13.88,1.56-20.75,2.88c-4.33,0.83-4.32,0.92-4.9,5.32c-0.8,6.1-1.67,12.19-2.49,18.29
		c-0.09,0.7-0.67,1.7,0.07,2.08c0.9,0.46,1.37-0.63,1.91-1.2c7.17-7.53,14.6-14.8,22.44-21.64
		C192.58,174.45,194.56,172.71,196.66,170.87z M263.98,299.29c0.2,0.09,0.42,0.28,0.62,0.26c7.79-0.65,15.46-2.03,23.1-3.62
		c0.98-0.2,1.58-0.89,1.75-1.89c1.2-7.29,2.63-14.54,3.24-21.92c0.05-0.61,0.42-1.47-0.33-1.79c-0.79-0.34-1.09,0.58-1.48,1.04
		c-8.06,9.3-16.69,18.05-25.77,26.35C264.65,298.13,263.95,298.42,263.98,299.29z M157.36,250.62c0.19-12.84-0.08-25.56,1.35-38.64
		c-0.81,0.47-1.07,0.54-1.21,0.71c-4.86,5.8-9.28,11.93-13.59,18.14c-0.74,1.06-0.47,1.99,0.24,2.96c1.72,2.34,3.36,4.74,5.1,7.07
		C151.76,244.23,154.21,247.64,157.36,250.62z M209.98,163.29c12.52-0.41,24.96-0.24,37.47-0.02c-5.3-4.83-10.79-9.1-16.6-12.96
		c-0.64-0.43-1.24-0.39-1.86-0.02C222.4,154.14,216,158.29,209.98,163.29z M216.25,307.13c5.75,4.26,11.63,7.99,17.65,11.5
		c1.06,0.62,1.91,0.1,2.74-0.51c4.83-3.54,9.67-7.07,14.46-10.65c0.61-0.46,1.83-0.81,1.54-1.7c-0.32-0.96-1.47-0.39-2.23-0.35
		c-10.56,0.58-21.11,1.38-31.71,1.09C217.99,306.49,217.21,306.25,216.25,307.13z M291.13,192.67c0.08-0.23,0.26-0.47,0.22-0.67
		c-0.93-5.15-1.87-10.29-2.83-15.43c-0.26-1.37-1.3-1.78-2.54-1.99c-4.34-0.74-8.66-1.54-12.99-2.28c-0.68-0.12-1.61-0.7-2.02,0.14
		c-0.41,0.84,0.62,1.26,1.13,1.72c6.01,5.51,11.69,11.34,17.24,17.31C289.82,191.98,290.2,192.69,291.13,192.67z M169.14,278.28
		c-0.69,1.27-0.41,2.08-0.24,2.87c0.89,4.13,1.87,8.25,2.65,12.4c0.26,1.36,0.84,2.05,2.16,2.29c4.65,0.86,9.29,1.77,13.94,2.61
		c0.57,0.1,1.33,0.41,1.86-0.64C182.49,291.72,175.84,285.17,169.14,278.28z M303.88,224.72c-0.14,9.29-0.55,18.49-1.26,27.52
		c0.83,0.31,1.08,0.06,1.27-0.19c3.09-4.02,5.78-8.31,8.51-12.57c0.43-0.66,0.49-1.45,0.07-2.14
		C309.83,233.05,307.29,228.69,303.88,224.72z M193.72,176.37c5.15-2.57,10.45-4.69,16.56-6.45
		C203.65,168.21,197.79,170.58,193.72,176.37z"/>
	<path d="M36.89,119.53c0.06,2.5-1.8,4.5-4.27,4.59c-2.46,0.09-4.71-2.05-4.71-4.5c0-2.36,2.11-4.47,4.47-4.47
		C34.89,115.16,36.83,117.05,36.89,119.53z"/>
	<path d="M82.97,64.03c-2.41,0.04-4.45-1.94-4.51-4.39c-0.06-2.46,1.85-4.53,4.26-4.62c2.43-0.09,4.71,2.08,4.73,4.51
		C87.47,61.81,85.3,63.99,82.97,64.03z"/>
	<path d="M234.46,463.57c-0.04,2.33-2.21,4.44-4.54,4.42c-2.58-0.02-4.52-2.08-4.43-4.69c0.08-2.4,2.21-4.4,4.59-4.31
		C232.42,459.07,234.51,461.26,234.46,463.57z"/>
	<path d="M152.73,445.45c2.49,0.03,4.43,1.99,4.41,4.45c-0.02,2.33-2.15,4.49-4.46,4.51c-2.43,0.03-4.61-2.23-4.52-4.68
		C148.25,447.24,150.2,445.41,152.73,445.45z"/>
	<path d="M229.93,1.14c2.35,0,4.51,2.11,4.54,4.42c0.03,2.41-2.22,4.64-4.65,4.58c-2.4-0.06-4.39-2.15-4.34-4.56
		C225.54,3.07,227.47,1.14,229.93,1.14z"/>
	<path d="M32.34,353.99c-2.35-0.05-4.47-2.24-4.42-4.56c0.05-2.38,2.14-4.45,4.51-4.46c2.54-0.01,4.58,2.1,4.49,4.66
		C36.84,352.05,34.74,354.05,32.34,353.99z"/>
	<path d="M313.67,449.49c0,2.45-1.97,4.47-4.39,4.49c-2.51,0.02-4.63-2.11-4.57-4.61c0.05-2.37,2.18-4.41,4.55-4.38
		C311.68,445.03,313.67,447.06,313.67,449.49z"/>
	<path d="M377.09,405.7c2.37-0.06,4.46,1.96,4.56,4.39c0.1,2.5-1.77,4.52-4.24,4.59c-2.62,0.08-4.71-1.88-4.72-4.41
		C372.67,407.9,374.74,405.75,377.09,405.7z"/>
	<path d="M87.45,409.6c-0.01,2.3-2.14,4.45-4.48,4.51c-2.47,0.06-4.57-2.1-4.51-4.64c0.06-2.44,2.09-4.41,4.53-4.38
		C85.29,405.13,87.46,407.31,87.45,409.6z"/>
	<path d="M428.93,353.09c-2.36,0.03-4.41-2.04-4.43-4.48c-0.02-2.46,1.95-4.52,4.35-4.55c2.36-0.03,4.53,2.01,4.63,4.35
		C433.58,350.84,431.42,353.06,428.93,353.09z"/>
	<path d="M309.14,24.1c-2.46-0.07-4.44-2.07-4.42-4.49c0.02-2.51,2.2-4.59,4.7-4.48c2.42,0.1,4.32,2.17,4.25,4.63
		C313.6,22.21,311.57,24.16,309.14,24.1z"/>
	<path d="M372.69,58.83c0.02-2.46,2-4.41,4.47-4.41c2.52,0,4.47,1.9,4.49,4.37c0.02,2.54-2.1,4.68-4.58,4.61
		C374.7,63.34,372.67,61.22,372.69,58.83z"/>
	<path d="M433.49,120.54c-0.02,2.32-2.14,4.46-4.48,4.51c-2.49,0.05-4.58-2.1-4.51-4.64c0.07-2.42,2.13-4.41,4.53-4.37
		C431.36,116.08,433.51,118.25,433.49,120.54z"/>
	<path d="M4.84,190.78c2.32-0.06,4.5,2.01,4.6,4.37c0.11,2.39-1.85,4.48-4.3,4.57c-2.6,0.1-4.54-1.62-4.67-4.15
		C0.36,193.04,2.35,190.85,4.84,190.78z"/>
	<path d="M4.93,269.39c2.45,0.01,4.52,2.01,4.54,4.36c0.02,2.39-2.29,4.67-4.65,4.6c-2.39-0.06-4.39-2.17-4.35-4.58
		C0.5,271.25,2.41,269.37,4.93,269.39z"/>
	<path d="M157.16,19.36c-0.05,2.4-2.13,4.39-4.56,4.36c-2.44-0.03-4.47-2.06-4.47-4.46c0-2.45,2.28-4.65,4.69-4.54
		C155.12,14.82,157.21,17.05,157.16,19.36z"/>
	<path d="M460.27,194.38c-0.07,2.49-2.02,4.37-4.53,4.35c-2.5-0.02-4.46-1.96-4.46-4.41c0-2.45,2.3-4.71,4.66-4.57
		C458.36,189.89,460.34,192.01,460.27,194.38z"/>
	<path d="M460.3,274.9c-0.03,2.28-2.24,4.47-4.51,4.47c-2.43,0-4.58-2.26-4.48-4.73c0.1-2.49,2.06-4.3,4.6-4.23
		C458.36,270.48,460.32,272.49,460.3,274.9z"/>
	<path d="M415.8,339.73c-0.11,1.76-0.97,2.72-2.53,2.68c-1.44-0.04-2.36-1.1-2.38-2.44c-0.03-1.51,0.96-2.46,2.56-2.44
		C414.95,337.55,415.65,338.47,415.8,339.73z"/>
	<path d="M365.94,393.91c1.4,0.32,2.56,1.01,2.52,2.59c-0.04,1.41-1,2.32-2.42,2.33c-1.55,0.02-2.48-0.83-2.45-2.47
		C363.61,394.83,364.6,394.22,365.94,393.91z"/>
	<path d="M158.38,33.57c1.47,0.11,2.35,0.9,2.4,2.35c0.06,1.53-0.66,2.58-2.32,2.64c-1.53,0.05-2.4-0.99-2.47-2.3
		C155.91,34.81,156.8,33.78,158.38,33.57z"/>
	<path d="M438.18,268.97c1.3,0.21,2.39,0.68,2.51,2.23c0.13,1.63-0.7,2.57-2.28,2.62c-1.53,0.05-2.57-0.83-2.61-2.38
		C435.77,269.99,436.81,269.27,438.18,268.97z"/>
	<path d="M232.67,445.81c-0.16,1.49-1.13,2.38-2.62,2.31c-1.36-0.06-2.36-0.99-2.32-2.44c0.05-1.57,1.08-2.43,2.62-2.37
		C231.79,443.37,232.62,444.22,232.67,445.81z"/>
	<path d="M160.81,432.75c-0.02,1.63-0.67,2.62-2.15,2.75c-1.64,0.15-2.55-0.93-2.62-2.37c-0.07-1.47,0.77-2.55,2.42-2.55
		C159.97,430.57,160.64,431.54,160.81,432.75z"/>
	<path d="M48.38,126.4c0.87-0.02,1.73,0.93,1.75,2.43c0.02,1.4-0.92,2.42-2.29,2.48c-1.52,0.07-2.47-0.97-2.5-2.49
		C45.32,127.41,46.06,126.47,48.38,126.4z"/>
	<path d="M47.77,342.7c-1.52,0.04-2.36-0.77-2.43-2.21c-0.07-1.54,0.8-2.62,2.32-2.65c1.51-0.03,2.51,1.01,2.47,2.53
		C50.11,341.73,49.28,342.66,47.77,342.7z"/>
	<path d="M22.38,273.53c-1.46-0.31-2.45-1.21-2.33-2.72c0.11-1.34,0.98-2.31,2.51-2.24c1.65,0.07,2.39,1.13,2.31,2.65
		C24.8,272.66,23.86,273.4,22.38,273.53z"/>
	<path d="M94.58,70.53c1.62,0.12,2.43,1.09,2.36,2.61c-0.07,1.4-0.94,2.37-2.41,2.31c-1.56-0.07-2.46-1.17-2.4-2.64
		C92.19,71.48,93.05,70.55,94.58,70.53z"/>
	<path d="M97.02,396.1c-0.27,1.56-0.99,2.55-2.64,2.47c-1.53-0.08-2.3-1.13-2.25-2.47c0.06-1.45,0.99-2.52,2.59-2.43
		C96.19,393.75,96.84,394.79,97.02,396.1z"/>
	<path d="M368.51,72.7c-0.26,1.49-1.16,2.49-2.65,2.43c-1.34-0.05-2.31-0.9-2.29-2.43c0.03-1.64,1-2.44,2.54-2.41
		C367.55,70.33,368.3,71.28,368.51,72.7z"/>
	<path d="M413.28,131.62c-1.51-0.13-2.46-1.05-2.39-2.57c0.07-1.36,1.04-2.38,2.46-2.34c1.51,0.04,2.47,0.97,2.41,2.59
		C415.71,130.8,414.83,131.54,413.28,131.62z"/>
	<path d="M24.9,198.05c-0.13,1.51-0.84,2.51-2.48,2.5c-1.51-0.01-2.36-1.02-2.37-2.36c0-1.45,0.89-2.55,2.49-2.55
		C24.02,195.65,24.75,196.6,24.9,198.05z"/>
	<path d="M232.68,23.18c-0.06,1.67-0.85,2.56-2.29,2.63c-1.53,0.07-2.6-0.76-2.64-2.33c-0.04-1.59,1.04-2.48,2.53-2.47
		C231.65,21.02,232.52,21.92,232.68,23.18z"/>
	<path d="M438.27,195.27c1.55,0.17,2.45,0.85,2.44,2.39c-0.02,1.65-1.07,2.45-2.54,2.42c-1.38-0.02-2.38-0.98-2.37-2.38
		C435.81,196.15,436.88,195.39,438.27,195.27z"/>
	<path d="M300.48,36.17c0.07-1.5,0.96-2.4,2.33-2.43c1.53-0.03,2.56,1.05,2.52,2.53c-0.04,1.45-0.99,2.45-2.64,2.35
		C301.16,38.53,300.51,37.63,300.48,36.17z"/>
	<path d="M300.49,432.81c0.07-1.39,0.73-2.3,2.27-2.33c1.63-0.03,2.57,0.98,2.56,2.44c-0.01,1.47-1.06,2.53-2.59,2.45
		C301.36,435.31,300.51,434.37,300.49,432.81z"/>
	<path d="M109.65,382.08c-0.24,1.37-1.02,2.32-2.47,2.24c-1.29-0.07-2.25-0.96-2.24-2.26c0.01-1.37,0.87-2.39,2.35-2.4
		C108.76,379.65,109.5,380.6,109.65,382.08z"/>
	<path d="M109.66,87.18c-0.23,1.37-0.98,2.33-2.43,2.28c-1.46-0.05-2.28-1.1-2.24-2.47c0.04-1.28,0.95-2.19,2.27-2.19
		C108.67,84.81,109.49,85.7,109.66,87.18z"/>
	<path d="M354.27,90.04c-1.46-0.29-2.47-1.01-2.37-2.47c0.08-1.26,0.86-2.15,2.26-2.14c1.45,0.01,2.37,0.76,2.4,2.24
		C356.59,89.2,355.47,89.74,354.27,90.04z"/>
	<path d="M166.68,54.19c-0.21,1.48-0.97,2.37-2.44,2.31c-1.51-0.06-2.23-1.11-2.17-2.48c0.05-1.3,0.99-2.2,2.27-2.18
		C165.73,51.86,166.55,52.79,166.68,54.19z"/>
	<path d="M164.22,412.56c1.44,0.14,2.35,0.82,2.41,2.32c0.06,1.55-0.94,2.36-2.27,2.4c-1.26,0.04-2.21-0.86-2.29-2.17
		C161.98,413.69,162.82,412.83,164.22,412.56z"/>
	<path d="M354.42,383.7c-1.57-0.01-2.48-0.81-2.53-2.22c-0.04-1.45,0.96-2.31,2.35-2.33c1.3-0.02,2.18,0.82,2.3,2.13
		C356.67,382.78,355.74,383.51,354.42,383.7z"/>
	<path d="M298.03,415.35c-0.25,1.34-0.95,2.29-2.46,2.16c-1.49-0.12-2.13-1.13-2.05-2.55c0.07-1.38,0.99-2.13,2.26-2.1
		C297.22,412.9,297.9,413.93,298.03,415.35z"/>
	<path d="M63.71,332.56c-1.35-0.21-2.15-1-2.1-2.47c0.05-1.4,1.03-2.14,2.24-2.17c1.4-0.04,2.34,0.93,2.32,2.34
		C66.14,331.67,65.26,332.5,63.71,332.56z"/>
	<path d="M298.04,53.99c-0.24,1.42-1.02,2.36-2.46,2.24c-1.25-0.1-2.11-0.91-2.07-2.3c0.04-1.44,0.77-2.35,2.27-2.33
		C297.31,51.62,297.88,52.66,298.04,53.99z"/>
	<path d="M66.2,138.64c-0.12,1.57-0.89,2.55-2.34,2.54c-1.29,0-2.19-0.81-2.25-2.2c-0.06-1.38,0.67-2.22,2.02-2.39
		C65.2,136.41,65.85,137.42,66.2,138.64z"/>
	<path d="M398.83,138.08c-0.11,1.48-0.84,2.39-2.3,2.4c-1.36,0-2.16-0.9-2.23-2.17c-0.08-1.41,0.79-2.42,2.19-2.49
		C397.9,135.74,398.71,136.67,398.83,138.08z"/>
	<path d="M396.55,328.58c1.52,0.29,2.3,1.08,2.24,2.56c-0.06,1.37-0.89,2.17-2.18,2.18c-1.44,0.01-2.28-0.96-2.29-2.37
		C394.31,329.49,395.27,328.79,396.55,328.58z"/>
	<path d="M43.67,268.46c-0.16,1.32-0.92,2.16-2.4,2.13c-1.51-0.03-2.26-1-2.21-2.39c0.04-1.32,0.97-2.16,2.25-2.13
		C42.65,266.09,43.64,266.81,43.67,268.46z"/>
	<path d="M41.47,203.1c-1.48-0.18-2.41-0.91-2.41-2.23c0-1.39,0.8-2.39,2.34-2.33c1.48,0.05,2.3,0.91,2.24,2.41
		C43.58,202.38,42.56,202.87,41.47,203.1z"/>
	<path d="M230.75,40.15c1.46,0.12,2.38,0.9,2.38,2.35c0,1.29-0.75,2.19-2.17,2.21c-1.34,0.02-2.22-0.62-2.34-2.02
		C228.48,41.15,229.35,40.41,230.75,40.15z"/>
	<path d="M233.19,426.5c-0.14,1.46-0.88,2.43-2.33,2.43c-1.27,0-2.22-0.69-2.25-2.14c-0.04-1.52,0.77-2.31,2.25-2.38
		C232.3,424.36,232.89,425.28,233.19,426.5z"/>
	<path d="M417.39,201.68c0.1-1.47,0.83-2.32,2.36-2.28c1.41,0.03,2.16,0.85,2.18,2.19c0.02,1.49-0.87,2.33-2.34,2.29
		C418.26,203.84,417.45,203.08,417.39,201.68z"/>
	<path d="M421.97,267.58c-0.16,1.25-0.79,2.11-2.2,2.14c-1.52,0.04-2.33-0.78-2.35-2.26c-0.02-1.38,0.82-2.18,2.16-2.21
		C421.04,265.21,421.85,266.04,421.97,267.58z"/>
	<path d="M402.42,204.08c-0.31,0.74-0.67,1.36-1.44,1.29c-0.72-0.07-1.25-0.57-1.14-1.34c0.1-0.7,0.6-1.24,1.34-1.2
		C401.93,202.88,402.24,203.5,402.42,204.08z"/>
	<path d="M402.39,264.99c-0.22,0.83-0.63,1.39-1.4,1.26c-0.66-0.11-1.26-0.58-1.17-1.35c0.08-0.71,0.58-1.23,1.35-1.15
		C401.93,263.83,402.2,264.45,402.39,264.99z"/>
	<path d="M291.32,397.24c-0.06,0.78-0.42,1.27-1.21,1.3c-0.78,0.02-1.25-0.43-1.29-1.19c-0.03-0.68,0.5-1.07,1.08-1.16
		C290.64,396.09,291.13,396.52,291.32,397.24z"/>
	<path d="M231.31,408c-0.23,0.66-0.61,1.26-1.35,1.17c-0.67-0.08-1.21-0.61-1.12-1.36c0.08-0.7,0.55-1.22,1.32-1.15
		C230.91,406.73,231.25,407.28,231.31,408z"/>
	<path d="M291.33,71.74c-0.1,0.75-0.58,1.19-1.31,1.19c-0.6,0-1.13-0.35-1.19-1.02c-0.07-0.78,0.39-1.25,1.15-1.32
		C290.76,70.52,291.19,70.97,291.33,71.74z"/>
	<path d="M380.67,319.65c0.91,0.06,1.22,0.62,1.2,1.35c-0.02,0.65-0.42,1.13-1.11,1.09c-0.78-0.04-1.18-0.55-1.14-1.35
		C379.66,320.07,380.05,319.71,380.67,319.65z"/>
	<path d="M380.77,147c0.83,0.19,1.18,0.68,1.05,1.45c-0.11,0.64-0.48,1.07-1.19,0.99c-0.85-0.09-1.08-0.69-1-1.42
		C379.7,147.34,380.16,147.03,380.77,147z"/>
	<path d="M118.69,365.88c0.81,0.05,1.18,0.56,1.15,1.29c-0.03,0.7-0.39,1.27-1.22,1.23c-0.71-0.03-0.99-0.53-1.02-1.15
		C117.56,366.5,117.9,366,118.69,365.88z"/>
	<path d="M231.32,61.18c-0.15,0.73-0.49,1.28-1.29,1.27c-0.67,0-1.08-0.44-1.17-1.07c-0.12-0.81,0.44-1.29,1.12-1.37
		C230.74,59.91,231.14,60.49,231.32,61.18z"/>
	<path d="M118.78,103.25c-0.87-0.11-1.21-0.61-1.17-1.36c0.03-0.62,0.29-1.12,1-1.17c0.83-0.05,1.18,0.51,1.24,1.21
		C119.91,102.69,119.48,103.14,118.78,103.25z"/>
	<path d="M60.77,264.39c-0.08,0.67-0.36,1.12-1.07,1.13c-0.84,0.01-1.16-0.51-1.14-1.25c0.02-0.65,0.38-1.09,1.06-1.1
		C60.43,263.15,60.74,263.67,60.77,264.39z"/>
	<path d="M198.68,262.66c-1.46-2.98-3.81-5.35-5.47-8.22c-4.55-7.86-5.42-16.24-3.93-25.09c-0.66,10.83,1.49,20.75,9.13,28.94
		c-8.33-12.68-9.68-25.73-2.27-39.24c-2.08,5.91-3.63,11.93-2.95,18.91c5.67-24.36,19.17-37.32,44.92-34.01
		c-9.61-4.07-18.98-2.7-28.28,1.24c3.71-2.71,7.87-4.11,12.37-4.93c4.43-0.8,8.79-0.58,13.2,0.09c-4.08-1.95-8.37-1.96-12.67-1.77
		c-4.29,0.19-8.34,1.55-12.42,2.74c12.51-7.8,32.08-5.4,44.17,7.33c11.67,12.29,13.44,32.11,4.58,44.96c-0.79-1.19,1.48-2,0.19-3.2
		c-1.22,1.3-1.74,3.19-3.41,4.21c3.74-7.4,5.73-15.07,4.16-23.43c-1.42,20.06-12.69,31.83-31.12,37.53
		c3.62,0.49,8.79,0.09,19.71-6.01c-3.12,3.06-6.4,4.81-9.94,6.34c1.27,0.4,1.24,0.3,2.88-0.21c0.98-0.31,1.95-0.66,2.93-1
		c-3.13,2.54-6.77,3.94-10.62,4.75c-13.12,2.75-24.49-0.77-34.31-9.72c-0.21-0.19-0.6-0.19-0.91-0.28L198.68,262.66z M198.74,233.53
		c-0.1,3.04,0.43,6.02,1.43,8.83c4.35,12.22,13.04,19.52,25.93,20.6c13.72,1.15,24.64-4.61,27.37-18.92
		c3.78-19.81-11.35-34.81-26.5-35.7C210.49,207.37,199.41,216.05,198.74,233.53z"/>
	<path d="M208.65,290.49c-2.51-0.14-4.83-1.24-7.09-2.18c-14.5-6.05-25.03-16.1-30.44-31.06c-1.04-2.88-1.65-5.91-2.37-8.9
		c-0.21-0.87-0.23-1.83-0.13-2.73c0.1-0.94,0.64-1.86,1.65-1.89c0.89-0.03,1.03,0.96,1.21,1.67c3.56,13.9,11.07,25.31,21.83,34.66
		c4.1,3.56,8.65,6.44,13.63,8.62c0.67,0.29,1.27,0.74,1.9,1.12C208.78,290.02,208.72,290.25,208.65,290.49z"/>
	<path d="M242.78,283c-1.29,2.15-3.52,2.34-5.51,3.17c3.07,0.1,5.97-1.08,9.01-1.27c-5.09,2.8-10.6,4.07-16.27,4.59
		c-3.81,0.35-7.65,0.17-11.39-0.78c-0.66-0.17-1.78,0.19-1.81-0.83c-0.03-1.01,0.97-1.18,1.83-1.28c0.29-0.03,0.56-0.16,0.91-0.27
		c-0.63-0.99-1.61-0.61-2.33-0.92c-0.47-0.2-0.98-0.4-0.94-1c0.05-0.79,0.69-0.87,1.28-0.83c1.24,0.1,2.48,0.24,3.71,0.42
		c6.91,0.99,13.75,0.47,20.56-0.91C242.13,283.01,242.46,283.02,242.78,283z"/>
	<path d="M289.94,240.25c-0.09-1.23-0.21-2.09-0.2-2.95c0.11-6.9-1.46-13.51-3.3-20.09c-0.56-2.02-2.34-4.02-0.09-6.14
		c0.17-0.16-0.29-1.04-0.52-1.56c-1.54-3.5-3.39-6.84-5.46-10.06c-0.5-0.78-1.24-1.61-0.18-2.36c1.22-0.86,1.57,0.48,2.03,1.12
		c5.45,7.55,8.55,16.07,10.13,25.18c0.16,0.91,0.42,1.77-1.09,1.91c-1.25,0.11-0.71,1.28-0.71,2.03c-0.01,3.41,0.05,6.82,0.02,10.22
		C290.58,238.31,290.76,239.16,289.94,240.25z"/>
	<path d="M264.07,205.83c-5.05-7.72-12.3-12.66-20.61-16.26c-7.02-3.04-14.34-3.99-21.93-3.22c-1.21,0.12-2.45,0.33-3.72-0.45
		c3.07-0.32,6.14-0.95,9.2-0.9c18.27,0.25,32.44,7.93,42.04,23.66c0.6,0.99,1.13,2.03,1.63,3.07c0.37,0.78,0.62,1.71-0.32,2.21
		c-1.1,0.58-1.32-0.49-1.75-1.18c-1.03-1.66-1.44-3.78-3.49-4.68C265.1,207.18,264.36,206.61,264.07,205.83z"/>
	<path d="M281.25,234.36c-0.41-6.47-1.63-12.72-4.12-18.68c-3.25-7.79-8.07-14.49-14.28-20.2c-0.84-0.78-2.01-1.5-0.84-2.85
		c1.24-1.44,2.14-0.44,3.08,0.46c8.58,8.21,13.65,18.2,15.77,29.87C281.55,226.79,281.59,230.55,281.25,234.36z"/>
	<path d="M284.04,249.48c-0.58-1.59-0.34-2.66-0.15-3.7c1.91-10.88,0.16-21.33-3.69-31.54c-0.5-1.32-1.09-2.6-1.56-3.93
		c-0.38-1.07-0.1-2.08,0.95-2.54c1.26-0.55,1.54,0.7,1.9,1.42c2.9,5.8,4.42,12,4.97,18.42
		C287.07,234.84,286.46,241.99,284.04,249.48z"/>
	<path d="M218.48,182.4c2.13-1.16,4.51-0.51,7.14-1.5c-5.89-0.92-11.07,0.39-16.3,1.42c2.26-1.39,4.81-1.94,7.28-2.38
		c4.49-0.8,9.02-1.6,13.63-0.96c0.89,0.12,2.26-0.03,1.6,1.66c-0.18,0.48,0.21,0.68,0.48,0.66c1.92-0.15,3.87,1.1,5.76-0.24
		c1.73-1.22,3.32,0.06,4.96,0.41c3.24,0.68,6.17,2.06,8.96,3.85c-3.4-0.24-6.25-2.48-9.6-2.7c-0.34,0.58,0.01,0.69,0.31,0.78
		c0.56,0.17,1.25,0.25,0.95,1.09c-0.27,0.73-0.89,0.58-1.48,0.45c-2.11-0.47-4.22-0.9-6.33-1.38c-5.16-1.17-10.4-1.08-15.64-1.04
		C219.62,182.53,219.05,182.44,218.48,182.4z"/>
	<path d="M193.31,267.49c1.18,0.92,2.35,1.87,3.55,2.77c10.54,7.94,22.41,11.34,35.53,10.11c3.12-0.29,6.19-1.18,9.25-1.94
		c1.89-0.47,2.39-2.99,4.5-3.28c0.56-0.07,1.07-0.45,1.63-0.51c0.58-0.06,1.25,0.07,1.4,0.77c0.17,0.8-0.59,0.83-1.07,1.12
		c-4.17,2.52-8.73,4.15-13.48,4.87c-14.58,2.21-27.75-1.05-39.04-10.87C194.66,269.72,193.69,268.93,193.31,267.49z"/>
	<path d="M236.56,274.88c-5.26,2.67-10.77,3.34-16.48,2.26c-1.72-0.33-3.31-0.85-5.04,0.17c-1.5,0.89-2.88-0.37-4.23-0.81
		c-3.66-1.18-7.13-2.8-10.19-5.27c0.74-1.04,1.29-0.54,1.83-0.21c1.27,0.78,2.63,1.45,3.79,2.37c2.05,1.63,4.23-0.04,6.34,0.46
		c6.32,1.51,12.73,2.37,19.25,1.7C233.42,275.39,234.99,275.11,236.56,274.88z"/>
	<path d="M189.32,214.67c-0.87,3.44-2.33,6.73-3.01,10.27c-1.32,6.89-1.1,13.68,0.85,20.43c0.45,1.56,1.92,3.89-0.4,4.48
		c-1.81,0.46-1.74-2.27-2.06-3.66C182.15,235.11,183.42,224.54,189.32,214.67z"/>
	<path d="M264.07,205.83c0.3,0.78,1.03,1.35,1.06,2.25c0.77,1.01,0.53,1.92-0.45,2.53c-1.09,0.69-1.63-0.31-2.21-0.97
		c-2.97-3.35-6.08-6.55-9.72-9.2c-0.65-0.48-1.45-1.01-0.7-2.01c0.7-0.93,1.55-1.22,2.57-0.52c2.6,1.78,5.04,3.74,7.2,6.05
		C262.48,204.68,263.08,205.5,264.07,205.83z"/>
	<path d="M215.09,174.88c1.57-0.29,3.12-0.64,4.7-0.87c5.12-0.75,10.24-0.82,15.33,0.22c0.66,0.13,3.09,0.23,0.49,1.6
		c-0.07,0.04-0.17,0.08-0.19,0.15c-0.59,1.62-0.6,1.66-2.78,1.18c-1.88-0.42-3.78-0.69-5.68-0.57c-4.01,0.25-7.8-1.47-11.82-0.99
		C215.12,175.36,215.1,175.12,215.09,174.88z"/>
	<path d="M283.98,269.4c4.47-9.22,7.03-18.89,7.65-29.09c0.02-0.33,0-0.69,0.11-0.99c0.27-0.7,0.66-1.55,1.47-1.41
		c0.86,0.15,0.52,1.1,0.51,1.7c-0.05,6.06-1.55,11.84-3.51,17.51C288.71,261.49,286.74,265.65,283.98,269.4z"/>
	<path d="M276.77,244.89c-0.41-3.81,0.35-7.43,0.26-11.07c-0.12-4.85-1.15-9.54-2.54-14.16c-0.18-0.59-0.63-1.44,0.33-1.66
		c0.76-0.18,0.75,0.69,0.92,1.21c2.27,6.87,3.42,13.85,2.12,21.07c-0.26,1.46,0.04,3-0.64,4.39
		C277.2,244.72,277.09,244.74,276.77,244.89z"/>
	<path d="M272.55,238.34c-0.64-1.53-0.46-3.2-0.55-4.8c-0.25-4.27-1.6-8.28-2.62-12.38c-0.14-0.56-0.39-1.21,0.39-1.47
		c0.65-0.21,0.83,0.38,1,0.83c2.08,5.51,2.89,11.21,2.46,17.08C273.2,237.92,273.07,238.25,272.55,238.34z"/>
	<path d="M250.46,293.91c-5.96,2.82-11.91,3.88-17.99,4.41c-0.6,0.05-1.61,0.37-1.66-0.51c-0.05-0.92,1.01-0.95,1.73-0.99
		c4.48-0.24,8.82-1.28,13.19-2.23C247.13,294.29,248.41,293.15,250.46,293.91z"/>
	<path d="M251.42,201.7c1.8,0.09,9.45,8.19,9.34,9.75c-0.02,0.33-0.08,0.74-0.47,0.74c-0.28,0-0.63-0.18-0.82-0.4
		c-2.63-2.99-5.42-5.81-8.61-8.22c-0.46-0.35-0.56-0.78-0.3-1.3C250.77,201.86,251.08,201.64,251.42,201.7z"/>
	<path d="M198.6,262.58c1.56,2.23,3.93,3.67,5.79,5.61c-0.75,0.94-1.39,0.42-1.86,0.1c-3.66-2.51-6.89-5.45-9.31-9.21
		c-0.36-0.56-0.96-1.24-0.3-1.74c0.69-0.52,1.14,0.38,1.55,0.81c1.41,1.5,2.49,3.31,4.22,4.51
		C198.68,262.66,198.6,262.58,198.6,262.58z"/>
	<path d="M268.07,234.49c-1.31-4.93-1.92-9.99-4.16-14.62c-0.34-0.69-0.64-1.55,0.03-2.07c0.6-0.46,1.09,0.25,1.31,0.76
		C267.43,223.66,268.29,229,268.07,234.49z"/>
	<path d="M198.38,268.2c-5.26-3.55-9-8.31-11.13-14.34C190.75,258.8,194.22,263.77,198.38,268.2z"/>
	<path d="M263.75,256.19c2.23-4.63,3.19-9.73,5.21-14.84C270.28,244.39,267.66,251.79,263.75,256.19z"/>
	<path d="M247.61,198.52c-5.79-2.01-11.32-4.95-17.63-5.35C234.08,192.09,243.94,194.97,247.61,198.52z"/>
	<path d="M275,250.57c2.21,0.84,3.52,0.12,4.07-2.22c0.39,1.44,0.43,3.35-0.68,4.07c-1.04,0.67-1.06,1.8-1.93,2.37
		c-1.21,0.8-1.51,2.27-2.56,3.72C273.34,255.41,276.08,253.29,275,250.57z"/>
	<path d="M245.73,289.76c3.71-1.67,7.43-3.34,11.14-5.02c-3.15,2.88-6.85,4.64-10.87,5.79
		C245.91,290.28,245.82,290.02,245.73,289.76z"/>
	<path d="M183.38,217.2c-1.56,4.23-2.16,8.66-3.11,13.43C179.28,227.55,180.46,222.58,183.38,217.2z"/>
	<path d="M198.85,197.2c1.94-1.89,4.14-3.35,6.74-4.44C204.91,194.43,201.88,196.46,198.85,197.2z"/>
	<path d="M209.23,197.92c2.09-0.78,3.96-2.2,6.48-1.74c-2.11,0.78-4.23,1.55-6.34,2.33C209.32,198.31,209.27,198.11,209.23,197.92z"
		/>
	<path d="M275.46,237.25c0.07,2.36,0.26,4.16-0.4,5.93C274.75,241.37,274.62,239.57,275.46,237.25z"/>
	<path d="M184.54,260.34c-1.48-1.31-2.32-2.9-2.43-4.83C182.91,257.12,183.72,258.73,184.54,260.34z"/>
	<path d="M178.26,224.84c0.4,1.66,0.45,3.29-0.28,4.84C177.47,228.02,177.59,226.4,178.26,224.84z"/>
</g>
</svg>
